<svg width="28" height="25" viewBox="0 0 28 25" fill="none" xmlns="http://www.w3.org/2000/svg">
	<path d="M13.976 12.4375C15.8134 12.4375 17.3029 10.948 17.3029 9.11061C17.3029 7.27321 15.8134 5.78369 13.976 5.78369C12.1386 5.78369 10.649 7.27321 10.649 9.11061C10.649 10.948 12.1386 12.4375 13.976 12.4375Z" stroke="#AAAAAA" stroke-width="2" stroke-miterlimit="10" stroke-linecap="round" stroke-linejoin="round" />
	<path d="M8.15381 23.2502V19.0916C8.15381 17.2534 9.64261 15.7646 11.4807 15.7646H16.4711C18.3092 15.7646 19.798 17.2534 19.798 19.0916V23.2502" stroke="#AAAAAA" stroke-width="2" stroke-miterlimit="10" stroke-linecap="round" stroke-linejoin="round" />
	<path d="M20.6298 11.606H23.125C24.9631 11.606 26.4519 13.0948 26.4519 14.9329V23.2502" stroke="#AAAAAA" stroke-width="2" stroke-miterlimit="10" stroke-linecap="round" stroke-linejoin="round" />
	<path d="M20.5715 8.27053C20.5882 8.27053 20.6131 8.27885 20.6298 8.27885C22.4679 8.27885 23.9567 6.79005 23.9567 4.95192C23.9567 3.1138 22.4679 1.625 20.6298 1.625C19.299 1.625 18.1512 2.41514 17.6189 3.5463" stroke="#AAAAAA" stroke-width="2" stroke-miterlimit="10" stroke-linecap="round" stroke-linejoin="round" />
	<path d="M7.32212 11.606H4.82692C2.9888 11.606 1.5 13.0948 1.5 14.9329V23.2502" stroke="#AAAAAA" stroke-width="2" stroke-miterlimit="10" stroke-linecap="round" stroke-linejoin="round" />
	<path d="M7.38039 8.27053C7.36376 8.27053 7.3388 8.27885 7.32216 8.27885C5.48404 8.27885 3.99524 6.79005 3.99524 4.95192C3.99524 3.1138 5.48404 1.625 7.32216 1.625C8.65293 1.625 9.80072 2.41514 10.333 3.5463" stroke="#AAAAAA" stroke-width="2" stroke-miterlimit="10" stroke-linecap="round" stroke-linejoin="round" />
</svg>
