<svg width="16" height="16" viewBox="0 0 16 16" fill="none" xmlns="http://www.w3.org/2000/svg">
	<g opacity="0.99">
		<path fill-rule="evenodd" clip-rule="evenodd" d="M2.66732 4.33268C3.4037 4.33268 4.00065 3.73573 4.00065 2.99935C4.00065 2.26297 3.4037 1.66602 2.66732 1.66602C1.93094 1.66602 1.33398 2.26297 1.33398 2.99935C1.33398 3.73573 1.93094 4.33268 2.66732 4.33268ZM6.33398 1.99935C5.7817 1.99935 5.33398 2.44706 5.33398 2.99935C5.33398 3.55163 5.7817 3.99935 6.33398 3.99935H13.6673C14.2196 3.99935 14.6673 3.55163 14.6673 2.99935C14.6673 2.44706 14.2196 1.99935 13.6673 1.99935H6.33398ZM5.33398 7.66602C5.33398 7.11373 5.7817 6.66602 6.33398 6.66602H13.6673C14.2196 6.66602 14.6673 7.11373 14.6673 7.66602C14.6673 8.2183 14.2196 8.66602 13.6673 8.66602H6.33398C5.7817 8.66602 5.33398 8.2183 5.33398 7.66602ZM5.33398 12.3327C5.33398 11.7804 5.7817 11.3327 6.33398 11.3327H13.6673C14.2196 11.3327 14.6673 11.7804 14.6673 12.3327C14.6673 12.885 14.2196 13.3327 13.6673 13.3327H6.33398C5.7817 13.3327 5.33398 12.885 5.33398 12.3327ZM4.00065 7.66602C4.00065 8.4024 3.4037 8.99935 2.66732 8.99935C1.93094 8.99935 1.33398 8.4024 1.33398 7.66602C1.33398 6.92964 1.93094 6.33268 2.66732 6.33268C3.4037 6.33268 4.00065 6.92964 4.00065 7.66602ZM2.66732 13.666C3.4037 13.666 4.00065 13.0691 4.00065 12.3327C4.00065 11.5963 3.4037 10.9993 2.66732 10.9993C1.93094 10.9993 1.33398 11.5963 1.33398 12.3327C1.33398 13.0691 1.93094 13.666 2.66732 13.666Z" fill="black" fill-opacity="0.3" />
	</g>
</svg>
