<svg width="27" height="28" viewBox="0 0 27 28" fill="none" xmlns="http://www.w3.org/2000/svg">
	<path d="M13.5 13.1668C15.8012 13.1668 17.6667 11.3013 17.6667 9.00016C17.6667 6.69898 15.8012 4.8335 13.5 4.8335C11.1989 4.8335 9.33337 6.69898 9.33337 9.00016C9.33337 11.3013 11.1989 13.1668 13.5 13.1668Z" stroke="#3A84FF" stroke-width="2" stroke-miterlimit="10" stroke-linecap="round" stroke-linejoin="round" />
	<path d="M6 24V19.8333C6 17.9917 7.49167 16.5 9.33333 16.5H17.6667C19.5083 16.5 21 17.9917 21 19.8333V24" stroke="#3A84FF" stroke-width="2" stroke-miterlimit="10" stroke-linecap="round" stroke-linejoin="round" />
	<path d="M13.5 26.5C20.4036 26.5 26 20.9036 26 14C26 7.09644 20.4036 1.5 13.5 1.5C6.59644 1.5 1 7.09644 1 14C1 20.9036 6.59644 26.5 13.5 26.5Z" stroke="#3A84FF" stroke-width="2" stroke-miterlimit="10" stroke-linecap="round" stroke-linejoin="round" />
</svg>
