<svg width="23" height="25" viewBox="0 0 23 25" fill="none" xmlns="http://www.w3.org/2000/svg">
  <path d="M3.00057 19H3V18.9873V18.9707V18.954V18.9371V18.9202V18.9032V18.886V18.8687V18.8514V18.8339V18.8163V18.7986V18.7808V18.7629V18.7448V18.7267V18.7085V18.6901V18.6717V18.6532V18.6345V18.6158V18.5969V18.578V18.5589V18.5398V18.5206V18.5012V18.4818V18.4622V18.4426V18.4229V18.403V18.3831V18.3631V18.343V18.3228V18.3025V18.2821V18.2616V18.2411V18.2204V18.1997V18.1788V18.1579V18.1369V18.1158V18.0946V18.0733V18.0519V18.0305V18.009V17.9873V17.9656V17.9438V17.922V17.9V17.878V17.8559V17.8337V17.8114V17.7891V17.7666V17.7441V17.7216V17.6989V17.6762V17.6533V17.6304V17.6075V17.5844V17.5613V17.5381V17.5149V17.4916V17.4682V17.4447V17.4212V17.3975V17.3739V17.3501V17.3263V17.3024V17.2785V17.2544V17.2304V17.2062V17.182V17.1577V17.1334V17.109V17.0845V17.06V17.0354V17.0108V16.9861V16.9613V16.9365V16.9116V16.8866V16.8616V16.8366V16.8115V16.7863V16.7611V16.7358V16.7105V16.6851V16.6596V16.6342V16.6086V16.583V16.5574V16.5317V16.5059V16.4802V16.4543V16.4284V16.4025V16.3765V16.3505V16.3244V16.2983V16.2722V16.246V16.2197V16.1934V16.1671V16.1407V16.1143V16.0878V16.0614V16.0348V16.0083V15.9816V15.955V15.9283V15.9016V15.8748V15.848V15.8212V15.7944V15.7675V15.7405V15.7136V15.6866V15.6596V15.6325V15.6054V15.5783V15.5512V15.524V15.4968V15.4696V15.4423V15.4151V15.3878V15.3604V15.3331V15.3057V15.2783V15.2509V15.2234V15.196V15.1685V15.141V15.1135V15.0859V15.0583V15.0308V15.0032V14.9755V14.9479V14.9202V14.8926V14.8649V14.8372V14.8095V14.7818V14.754V14.7263V14.6985V14.6707V14.643V14.6152V14.5874V14.5596V14.5317V14.5039V14.4761V14.4482V14.4204V14.3926V14.3647V14.3368V14.309V14.2811V14.2532V14.2254V14.1975V14.1696V14.1418V14.1139V14.086V14.0581V14.0303V14.0024V13.9745V13.9467V13.9188V13.891V13.8631V13.8353V13.8075V13.7796V13.7518V13.724V13.6962V13.6684V13.6406V13.6129V13.5851V13.5574V13.5296V13.5019V13.4742V13.4465V13.4188V13.3912V13.3635V13.3359V13.3082V13.2806V13.2531V13.2255V13.198V13.1704V13.1429V13.1154V13.088V13.0605V13.0331V13.0057V12.9783V12.951V12.9237V12.8964V12.8691V12.8418V12.8146V12.7874V12.7602V12.7331V12.706V12.6789V12.6519V12.6248V12.5979V12.5709V12.544V12.5171V12.4902V12.4634V12.4366V12.4099V12.3832V12.3565V12.3298V12.3032V12.2767V12.2501V12.2236V12.1972V12.1708V12.1444V12.1181V12.0918V12.0655V12.0393V12.0132V11.9871V11.961V11.935V11.909V11.8831V11.8572V11.8314V11.8056V11.7798V11.7542V11.7285V11.7029V11.6774V11.6519V11.6265V11.6011V11.5758V11.5505V11.5253V11.5001V11.475V11.45V11.425V11.4V11.3751V11.3503V11.3256V11.3008V11.2762V11.2516V11.2271V11.2026V11.1782V11.1539V11.1296V11.1054V11.0813V11.0572V11.0332V11.0092V10.9854V10.9616V10.9378V10.9141V10.8905V10.867V10.8435V10.8201V10.7968V10.7736V10.7504V10.7273V10.7042V10.6813V10.6584V10.6356V10.6129V10.5902V10.5676V10.5451V10.5227V10.5003V10.4781V10.4559V10.4338V10.4118V10.3898V10.368V10.3462V10.3245V10.3029V10.2813V10.2599V10.2385V10.2173V10.1961V10.175V10.154V10.1331V10.1122V10.0915V10.0708V10.0503V10.0298V10.0094V9.98912V9.96892V9.94882V9.92881V9.9089V9.88908V9.86935V9.84972V9.83019V9.81076V9.79142V9.77219V9.75305V9.73401V9.71507V9.69623V9.6775V9.65886V9.64033V9.6219V9.60357V9.58535V9.56723V9.54922V9.53131V9.51351V9.49582V9.47823V9.46075V9.44338V9.42612V9.40897V9.39193V9.375C3 4.76206 6.79305 1 11.5 1C16.2069 1 20 4.76206 20 9.375V9.40534V9.43569V9.46604V9.4964V9.52676V9.55713V9.5875V9.61788V9.64826V9.67865V9.70903V9.73943V9.76982V9.80022V9.83062V9.86102V9.89143V9.92183V9.95224V9.98265V10.0131V10.0435V10.0739V10.1043V10.1347V10.1651V10.1955V10.2259V10.2564V10.2868V10.3172V10.3476V10.378V10.4084V10.4388V10.4692V10.4996V10.53V10.5603V10.5907V10.6211V10.6515V10.6818V10.7122V10.7426V10.7729V10.8033V10.8336V10.864V10.8943V10.9246V10.9549V10.9852V11.0155V11.0458V11.0761V11.1064V11.1367V11.1669V11.1972V11.2274V11.2577V11.2879V11.3181V11.3483V11.3785V11.4087V11.4389V11.469V11.4992V11.5293V11.5594V11.5895V11.6196V11.6497V11.6798V11.7099V11.7399V11.77V11.8V11.83V11.86V11.89V11.9199V11.9499V11.9798V12.0097V12.0396V12.0695V12.0994V12.1292V12.159V12.1889V12.2187V12.2484V12.2782V12.3079V12.3377V12.3674V12.3971V12.4267V12.4564V12.486V12.5156V12.5452V12.5748V12.6043V12.6338V12.6633V12.6928V12.7223V12.7517V12.7811V12.8105V12.8399V12.8692V12.8986V12.9279V12.9571V12.9864V13.0156V13.0448V13.074V13.1031V13.1323V13.1614V13.1904V13.2195V13.2485V13.2775V13.3065V13.3354V13.3643V13.3932V13.4221V13.4509V13.4797V13.5085V13.5372V13.5659V13.5946V13.6232V13.6519V13.6805V13.709V13.7376V13.7661V13.7945V13.823V13.8514V13.8797V13.9081V13.9364V13.9647V13.9929V14.0211V14.0493V14.0774V14.1055V14.1336V14.1616V14.1896V14.2176V14.2455V14.2734V14.3013V14.3291V14.3569V14.3846V14.4124V14.44V14.4677V14.4953V14.5228V14.5504V14.5778V14.6053V14.6327V14.6601V14.6874V14.7147V14.7419V14.7691V14.7963V14.8234V14.8505V14.8776V14.9046V14.9315V14.9585V14.9853V15.0122V15.039V15.0657V15.0924V15.1191V15.1457V15.1723V15.1988V15.2253V15.2517V15.2781V15.3044V15.3307V15.357V15.3832V15.4094V15.4355V15.4616V15.4876V15.5136V15.5395V15.5654V15.5912V15.617V15.6427V15.6684V15.694V15.7196V15.7452V15.7706V15.7961V15.8215V15.8468V15.8721V15.8973V15.9225V15.9476V15.9727V15.9977V16.0227V16.0476V16.0725V16.0973V16.122V16.1467V16.1714V16.196V16.2205V16.245V16.2695V16.2938V16.3181V16.3424V16.3666V16.3908V16.4149V16.4389V16.4629V16.4868V16.5107V16.5345V16.5582V16.5819V16.6056V16.6291V16.6526V16.6761V16.6995V16.7228V16.7461V16.7693V16.7925V16.8156V16.8386V16.8616V16.8845V16.9073V16.9301V16.9528V16.9755V16.9981V17.0206V17.0431V17.0655V17.0878V17.1101V17.1323V17.1544V17.1765V17.1985V17.2205V17.2424V17.2642V17.2859V17.3076V17.3292V17.3508V17.3723V17.3937V17.415V17.4363V17.4575V17.4787V17.4997V17.5207V17.5417V17.5625V17.5833V17.6041V17.6247V17.6453V17.6658V17.6862V17.7066V17.7269V17.7471V17.7673V17.7874V17.8074V17.8273V17.8472V17.867V17.8867V17.9063V17.9259V17.9454V17.9648V17.9841V18.0034V18.0226V18.0417V18.0607V18.0797V18.0986V18.1174V18.1361V18.1548V18.1733V18.1918V18.2103V18.2286V18.2469V18.2651V18.2832V18.3012V18.3191V18.337V18.3548V18.3725V18.3901V18.4076V18.4251V18.4425V18.4598V18.477V18.4941V18.5112V18.5282V18.545V18.5619V18.5786V18.5952V18.6118V18.6282V18.6446V18.6609V18.6771V18.6932V18.7093V18.7252V18.7411V18.7569V18.7726V18.7882V18.8037V18.8192V18.8345V18.8498V18.8649V18.88V18.895V18.9099V18.9247V18.9395V18.9541V18.9687V18.9831V18.9975V19H19.9925H19.9646H19.9364H19.9079H19.8792H19.8502H19.821H19.7915H19.7618H19.7318H19.7016H19.6711H19.6404H19.6095H19.5782H19.5468H19.5151H19.4832H19.451H19.4186H19.3859H19.3531H19.3199H19.2866H19.253H19.2192H19.1852H19.151H19.1165H19.0818H19.0469H19.0117H18.9764H18.9408H18.905H18.869H18.8328H18.7963H18.7597H18.7228H18.6858H18.6485H18.611H18.5733H18.5355H18.4974H18.4591H18.4206H18.382H18.3431H18.304H18.2648H18.2253H18.1857H18.1459H18.1059H18.0657H18.0253H17.9847H17.944H17.9031H17.862H17.8207H17.7792H17.7376H17.6958H17.6538H17.6117H17.5694H17.5269H17.4843H17.4414H17.3985H17.3553H17.312H17.2686H17.225H17.1812H17.1373H17.0932H17.049H17.0046H16.9601H16.9154H16.8705H16.8256H16.7805H16.7352H16.6898H16.6443H16.5986H16.5528H16.5068H16.4607H16.4145H16.3682H16.3217H16.2751H16.2284H16.1815H16.1345H16.0874H16.0402H15.9928H15.9454H15.8978H15.8501H15.8023H15.7543H15.7063H15.6582H15.6099H15.5615H15.513H15.4645H15.4158H15.367H15.3181H15.2691H15.22H15.1709H15.1216H15.0722H15.0227H14.9732H14.9235H14.8738H14.824H14.7741H14.7241H14.674H14.6239H14.5736H14.5233H14.4729H14.4225H14.3719H14.3213H14.2706H14.2199H14.169H14.1181H14.0672H14.0162H13.9651H13.9139H13.8627H13.8114H13.7601H13.7087H13.6573H13.6058H13.5542H13.5026H13.451H13.3993H13.3476H13.2958H13.2439H13.1921H13.1402H13.0882H13.0362H12.9842H12.9321H12.88H12.8279H12.7757H12.7235H12.6713H12.619H12.5668H12.5145H12.4621H12.4098H12.3574H12.305H12.2526H12.2002H12.1478H12.0953H12.0429H11.9904H11.9379H11.8854H11.8329H11.7804H11.7279H11.6754H11.6229H11.5704H11.5179H11.4654H11.4129H11.3604H11.3079H11.2554H11.2029H11.1505H11.098H11.0456H10.9932H10.9408H10.8884H10.8361H10.7837H10.7314H10.6791H10.6269H10.5746H10.5224H10.4702H10.4181H10.366H10.3139H10.2618H10.2098H10.1578H10.1059H10.054H10.0021H9.95032H9.89856H9.84683H9.79516H9.74354H9.69196H9.64044H9.58897H9.53755H9.48619H9.43489H9.38364H9.33246H9.28134H9.23028H9.17928H9.12835H9.07749H9.02669H8.97596H8.92531H8.87473H8.82422H8.77378H8.72343H8.67315H8.62295H8.57283H8.52279H8.47284H8.42297H8.37319H8.32349H8.27389H8.22437H8.17495H8.12562H8.07638H8.02724H7.9782H7.92926H7.88041H7.83167H7.78303H7.7345H7.68607H7.63775H7.58953H7.54143H7.49344H7.44556H7.39779H7.35014H7.30261H7.25519H7.20789H7.16072H7.11367H7.06674H7.01993H6.97325H6.9267H6.88028H6.83399H6.78784H6.74181H6.69592H6.65017H6.60455H6.55908H6.51374H6.46854H6.42349H6.37859H6.33382H6.28921H6.24474H6.20043H6.15626H6.11225H6.0684H6.0247H5.98115H5.93776H5.89454H5.85147H5.80857H5.76583H5.72326H5.68085H5.63861H5.59654H5.55465H5.51292H5.47137H5.42999H5.38879H5.34776H5.30692H5.26626H5.22577H5.18548H5.14536H5.10543H5.06569H5.02614H4.98678H4.94761H4.90864H4.86985H4.83127H4.79288H4.75469H4.7167H4.67891H4.64132H4.60394H4.56676H4.52979H4.49303H4.45648H4.42014H4.38401H4.34809H4.31239H4.27691H4.24165H4.2066H4.17178H4.13717H4.10279H4.06864H4.03471H4.00101H3.96754H3.9343H3.90129H3.86852H3.83597H3.80367H3.7716H3.73977H3.70818H3.67684H3.64573H3.61487H3.58426H3.55389H3.52377H3.4939H3.46429H3.43492H3.40581H3.37696H3.34836H3.32002H3.29194H3.26412H3.23656H3.20926H3.18224H3.15547H3.12898H3.10275H3.0768H3.05112H3.02571H3.00057Z" stroke="#AAAAAA" stroke-width="2"/>
  <line x1="1" y1="19" x2="22" y2="19" stroke="#AAAAAA" stroke-width="2" stroke-linecap="round"/>
  <line x1="9" y1="24" x2="14" y2="24" stroke="#AAAAAA" stroke-width="2" stroke-linecap="round"/>
  </svg>
