<svg width="27" height="28" viewBox="0 0 27 28" fill="none" xmlns="http://www.w3.org/2000/svg">
	<path d="M13.5 11.9582C15.3409 11.9582 16.8333 10.4658 16.8333 8.62484C16.8333 6.78389 15.3409 5.2915 13.5 5.2915C11.659 5.2915 10.1666 6.78389 10.1666 8.62484C10.1666 10.4658 11.659 11.9582 13.5 11.9582Z" stroke="#AAAAAA" stroke-width="2" stroke-miterlimit="10" stroke-linecap="round" stroke-linejoin="round" />
	<path d="M6.83333 11.125H4.33333C2.49167 11.125 1 12.6167 1 14.4583V22.7917" stroke="#AAAAAA" stroke-width="2" stroke-miterlimit="10" stroke-linecap="round" stroke-linejoin="round" />
	<path d="M6.89167 7.78334C6.875 7.78334 6.85 7.79167 6.83333 7.79167C4.99167 7.79167 3.5 6.3 3.5 4.45833C3.5 2.61667 4.99167 1.125 6.83333 1.125C8.16667 1.125 9.31667 1.91666 9.85 3.05" stroke="#AAAAAA" stroke-width="2" stroke-miterlimit="10" stroke-linecap="round" stroke-linejoin="round" />
	<path d="M20.1667 26.1252C23.3884 26.1252 26 23.5135 26 20.2918C26 17.0702 23.3884 14.4585 20.1667 14.4585C16.945 14.4585 14.3334 17.0702 14.3334 20.2918C14.3334 23.5135 16.945 26.1252 20.1667 26.1252Z" stroke="#AAAAAA" stroke-width="2" stroke-miterlimit="10" stroke-linecap="round" stroke-linejoin="round" />
	<path d="M16.8333 15.2915H11C9.15829 15.2915 7.66663 16.7832 7.66663 18.6248V26.1248" stroke="#AAAAAA" stroke-width="2" stroke-miterlimit="10" stroke-linecap="round" stroke-linejoin="round" />
	<path d="M20.1666 17.7915V22.7915" stroke="#AAAAAA" stroke-width="2" stroke-miterlimit="10" stroke-linecap="round" stroke-linejoin="round" />
	<path d="M22.6666 20.2915H17.6666" stroke="#AAAAAA" stroke-width="2" stroke-miterlimit="10" stroke-linecap="round" stroke-linejoin="round" />
</svg>
