<svg width="16" height="16" viewBox="0 0 16 16" fill="none" xmlns="http://www.w3.org/2000/svg">
<path fill-rule="evenodd" clip-rule="evenodd" d="M8.86128 1.69526C9.1153 1.44124 9.52493 1.43418 9.78756 1.6793L12.2876 4.01263C12.4197 4.13599 12.4961 4.30774 12.4992 4.48851C12.5024 4.66928 12.4319 4.84356 12.3041 4.97141L5.63742 11.6381C5.5124 11.7631 5.34283 11.8333 5.16602 11.8333H2.83268C2.46449 11.8333 2.16602 11.5349 2.16602 11.1667V8.66667C2.16602 8.48986 2.23625 8.32029 2.36128 8.19526L8.86128 1.69526ZM9.34866 3.0935L3.49935 8.94281V10.5H4.88987L10.8733 4.51654L9.34866 3.0935Z" fill="#999DA8"/>
<path d="M2.33268 13.6667C2.33268 13.4826 2.48192 13.3333 2.66602 13.3333H13.666C13.8501 13.3333 13.9993 13.4826 13.9993 13.6667V14.3333C13.9993 14.5174 13.8501 14.6667 13.666 14.6667H2.66602C2.48192 14.6667 2.33268 14.5174 2.33268 14.3333V13.6667Z" fill="#999DA8"/>
</svg>
