<svg width="26" height="22" viewBox="0 0 26 22" fill="none" xmlns="http://www.w3.org/2000/svg">
	<path fill-rule="evenodd" clip-rule="evenodd" d="M9.28128 3.0625C7.33798 3.0625 5.75702 4.64334 5.75702 6.60033C5.75702 8.55731 7.33798 10.1382 9.28128 10.1382C11.2246 10.1382 12.8055 8.55731 12.8055 6.60033C12.8055 4.64334 11.2246 3.0625 9.28128 3.0625ZM3.50702 6.60033C3.50702 3.40689 6.08915 0.8125 9.28128 0.8125C12.4734 0.8125 15.0555 3.40689 15.0555 6.60033C15.0555 9.79376 12.4734 12.3882 9.28128 12.3882C6.08915 12.3882 3.50702 9.79376 3.50702 6.60033ZM19.9688 7C18.802 7 17.8221 7.96847 17.8221 9.20559C17.8221 10.4427 18.802 11.4112 19.9688 11.4112C21.1355 11.4112 22.1155 10.4427 22.1155 9.20559C22.1155 7.96847 21.1355 7 19.9688 7ZM15.5721 9.20559C15.5721 6.76384 17.5217 4.75 19.9688 4.75C22.4158 4.75 24.3655 6.76384 24.3655 9.20559C24.3655 11.6473 22.4158 13.6612 19.9688 13.6612C17.5217 13.6612 15.5721 11.6473 15.5721 9.20559ZM9.28128 16.5329C6.27552 16.5329 3.7325 18.5436 2.92506 21.3022C2.83779 21.6003 2.54333 21.7982 2.23885 21.7366L1.1362 21.5134C0.831719 21.4518 0.633132 21.1541 0.713963 20.8541C1.73357 17.0704 5.17998 14.2829 9.28128 14.2829C13.3826 14.2829 16.829 17.0704 17.8486 20.8541C17.9294 21.1541 17.7308 21.4518 17.4263 21.5134L16.3237 21.7366C16.0192 21.7982 15.7248 21.6003 15.6375 21.3022C14.8301 18.5436 12.287 16.5329 9.28128 16.5329ZM19.4063 17.7467C18.8125 17.7467 18.3194 17.827 17.907 17.9598C17.6113 18.055 17.2727 17.9493 17.1312 17.6728L16.6189 16.6712C16.4774 16.3946 16.5862 16.0531 16.8755 15.9398C17.618 15.6491 18.4602 15.4967 19.4063 15.4967C21.4825 15.4967 23.008 16.2332 24.0659 17.4271C24.9475 18.422 25.4404 19.6623 25.7319 20.8559C25.8056 21.1577 25.6063 21.4543 25.3017 21.515L24.1984 21.735C23.8937 21.7957 23.5994 21.5974 23.5228 21.2964C23.2811 20.3474 22.9185 19.5248 22.3819 18.9193C21.7844 18.245 20.8907 17.7467 19.4063 17.7467Z" fill="#0077FA" />
</svg>
