<svg width="48" height="48" viewBox="0 0 48 48" fill="none" xmlns="http://www.w3.org/2000/svg">
	<path fill-rule="evenodd" clip-rule="evenodd" d="M16.5003 9C13.0455 9 10.2349 11.8104 10.2349 15.2895C10.2349 18.7686 13.0455 21.5789 16.5003 21.5789C19.955 21.5789 22.7656 18.7686 22.7656 15.2895C22.7656 11.8104 19.955 9 16.5003 9ZM6.23493 15.2895C6.23493 9.61226 10.8254 5 16.5003 5C22.1751 5 26.7656 9.61226 26.7656 15.2895C26.7656 20.9667 22.1751 25.5789 16.5003 25.5789C10.8254 25.5789 6.23493 20.9667 6.23493 15.2895ZM35.5003 16C33.426 16 31.6839 17.7217 31.6839 19.9211C31.6839 22.1204 33.426 23.8421 35.5003 23.8421C37.5745 23.8421 39.3166 22.1204 39.3166 19.9211C39.3166 17.7217 37.5745 16 35.5003 16ZM27.6839 19.9211C27.6839 15.5802 31.1499 12 35.5003 12C39.8506 12 43.3166 15.5802 43.3166 19.9211C43.3166 24.2619 39.8506 27.8421 35.5003 27.8421C31.1499 27.8421 27.6839 24.2619 27.6839 19.9211ZM16.5003 32.9474C11.1567 32.9474 6.63577 36.522 5.20032 41.4261C5.04517 41.9561 4.5217 42.3079 3.98039 42.1984L2.02014 41.8016C1.47883 41.6921 1.12578 41.1628 1.26949 40.6295C3.08213 33.903 9.20907 28.9474 16.5003 28.9474C23.7915 28.9474 29.9184 33.903 31.731 40.6295C31.8747 41.1628 31.5217 41.6921 30.9804 41.8016L29.0201 42.1984C28.4788 42.3079 27.9554 41.9561 27.8002 41.4261C26.3648 36.522 21.8438 32.9474 16.5003 32.9474ZM34.5003 35.1053C33.4446 35.1053 32.5681 35.2479 31.8349 35.4841C31.3092 35.6534 30.7072 35.4655 30.4557 34.9738L29.5448 33.1932C29.2933 32.7016 29.4868 32.0943 30.001 31.893C31.3211 31.3762 32.8184 31.1053 34.5003 31.1053C38.1913 31.1053 40.9034 32.4146 42.7841 34.5371C44.3514 36.3059 45.2275 38.5107 45.7458 40.6327C45.8768 41.1692 45.5226 41.6964 44.981 41.8044L43.0196 42.1955C42.4779 42.3036 41.9548 41.951 41.8185 41.4158C41.3888 39.7287 40.7442 38.2663 39.7903 37.1899C38.7281 35.9911 37.1392 35.1053 34.5003 35.1053Z" fill="#0077FA" />
</svg>
