<svg width="23" height="21" viewBox="0 0 23 21" fill="none" xmlns="http://www.w3.org/2000/svg">
	<path fill-rule="evenodd" clip-rule="evenodd" d="M18.0799 18.8369C16.7029 16.6014 13.7561 14.5 9.45951 14.5C5.16292 14.5 2.21612 16.6014 0.839162 18.8369C0.195574 19.8817 1.10842 21 2.33559 21H16.5834C17.8106 21 18.7235 19.8817 18.0799 18.8369Z" fill="#0077FA" />
	<path fill-rule="evenodd" clip-rule="evenodd" d="M13.0502 9.42044C13.5725 9.20647 14.0695 8.55774 14.2964 7.71085C14.5915 6.60959 14.533 5.62629 13.7287 5.3203C13.6507 1.48444 12.1371 0 8.96047 0C5.78404 0 4.27045 1.48424 4.19224 5.31952C3.38613 5.62467 3.32725 6.60866 3.62257 7.7108C3.84983 8.55892 4.34792 9.20829 4.87111 9.42131C5.71171 11.5727 7.24147 13.013 8.96047 13.013C10.6797 13.013 12.2096 11.5723 13.0502 9.42044Z" fill="#0077FA" />
	<path fill-rule="evenodd" clip-rule="evenodd" d="M19.0003 0C18.448 0 18.0003 0.447715 18.0003 1V3H16.0003C15.448 3 15.0003 3.44772 15.0003 4C15.0003 4.55228 15.448 5 16.0003 5H18.0003V7C18.0003 7.55228 18.448 8 19.0003 8C19.5526 8 20.0003 7.55228 20.0003 7V5H22.0003C22.5526 5 23.0003 4.55228 23.0003 4C23.0003 3.44772 22.5526 3 22.0003 3H20.0003V1C20.0003 0.447715 19.5526 0 19.0003 0Z" fill="#0077FA" />
</svg>