<svg width="18" height="18" viewBox="0 0 18 18" fill="none" xmlns="http://www.w3.org/2000/svg">
	<path fill-rule="evenodd" clip-rule="evenodd" d="M7.52192 0.998812L0.271354 14.8957C-0.307573 16.0053 0.497441 17.3333 1.749 17.3333H16.2501C17.5017 17.3333 18.3067 16.0053 17.7278 14.8957L10.4772 0.998811C9.85409 -0.195487 8.14503 -0.195485 7.52192 0.998812ZM9.95079 10.675C9.88316 11.1484 9.47777 11.5 8.9996 11.5C8.52144 11.5 8.11604 11.1484 8.04842 10.675L7.56864 7.31658C7.44424 6.44577 8.11995 5.66667 8.9996 5.66667C9.87926 5.66667 10.555 6.44577 10.4306 7.31658L9.95079 10.675ZM10.2496 14.4167C10.2496 15.107 9.68996 15.6667 8.9996 15.6667C8.30925 15.6667 7.7496 15.107 7.7496 14.4167C7.7496 13.7263 8.30925 13.1667 8.9996 13.1667C9.68996 13.1667 10.2496 13.7263 10.2496 14.4167Z" fill="#0077FA" />
</svg>
