<svg width="22" height="22" viewBox="0 0 22 22" fill="none" xmlns="http://www.w3.org/2000/svg">
	<path fill-rule="evenodd" clip-rule="evenodd" d="M1.83325 3.66666C1.83325 2.65414 2.65406 1.83333 3.66659 1.83333H8.24992C9.26244 1.83333 10.0833 2.65414 10.0833 3.66666V8.24999C10.0833 9.26252 9.26244 10.0833 8.24992 10.0833H3.66659C2.65406 10.0833 1.83325 9.26252 1.83325 8.24999V3.66666ZM1.83325 13.75C1.83325 12.7375 2.65406 11.9167 3.66659 11.9167H8.24992C9.26244 11.9167 10.0833 12.7375 10.0833 13.75V18.3333C10.0833 19.3458 9.26244 20.1667 8.24992 20.1667H3.66659C2.65406 20.1667 1.83325 19.3458 1.83325 18.3333V13.75ZM13.7499 1.83333C12.7374 1.83333 11.9166 2.65414 11.9166 3.66666V8.24999C11.9166 9.26252 12.7374 10.0833 13.7499 10.0833H18.3333C19.3458 10.0833 20.1666 9.26252 20.1666 8.24999V3.66666C20.1666 2.65414 19.3458 1.83333 18.3333 1.83333H13.7499ZM14.6666 13.2917C14.6666 12.5323 15.2822 11.9167 16.0416 11.9167C16.801 11.9167 17.4166 12.5323 17.4166 13.2917V14.6667H18.7916C19.551 14.6667 20.1666 15.2823 20.1666 16.0417C20.1666 16.8011 19.551 17.4167 18.7916 17.4167H17.4166V18.7917C17.4166 19.5511 16.801 20.1667 16.0416 20.1667C15.2822 20.1667 14.6666 19.5511 14.6666 18.7917V17.4167H13.2916C12.5322 17.4167 11.9166 16.8011 11.9166 16.0417C11.9166 15.2823 12.5322 14.6667 13.2916 14.6667H14.6666V13.2917Z" fill="#0077FA" />
</svg>
