<svg width="18" height="18" viewBox="0 0 18 18" fill="none" xmlns="http://www.w3.org/2000/svg">
	<path fill-rule="evenodd" clip-rule="evenodd" d="M8.99979 3.375C6.54433 3.375 4.4536 4.94898 3.68702 7.14643C3.48236 7.73308 2.84089 8.04275 2.25424 7.8381C1.66759 7.63345 1.35792 6.99197 1.56257 6.40532C2.63456 3.33239 5.55794 1.125 8.99979 1.125C11.6824 1.125 14.05 2.46592 15.4716 4.51238L15.7973 3.42673C15.9758 2.83161 16.603 2.49391 17.1981 2.67245C17.7932 2.85098 18.1309 3.47815 17.9524 4.07327L16.8273 7.82327C16.6606 8.37918 16.0983 8.71698 15.5292 8.60315L11.7792 7.85315C11.1699 7.7313 10.7748 7.13862 10.8966 6.52937C11.0185 5.92011 11.6112 5.52499 12.2204 5.64685L13.7259 5.94795C12.7234 4.39885 10.9802 3.375 8.99979 3.375ZM4.27366 12.0521L5.77918 12.3532C6.38843 12.475 6.98111 12.0799 7.10296 11.4706C7.22481 10.8614 6.82969 10.2687 6.22044 10.1468L2.47046 9.39685C1.90134 9.28302 1.33905 9.62082 1.17227 10.1767L0.0472547 13.9267C-0.131283 14.5218 0.206421 15.149 0.801537 15.3276C1.39665 15.5061 2.02382 15.1684 2.20236 14.5733L2.52805 13.4877C3.94965 15.5341 6.31725 16.875 8.99979 16.875C12.4304 16.875 15.3459 14.682 16.4264 11.6249C16.6335 11.0391 16.3264 10.3964 15.7406 10.1893C15.1548 9.98225 14.5121 10.2893 14.305 10.8751C13.5323 13.0614 11.4472 14.625 8.99979 14.625C7.01937 14.625 5.2762 13.6011 4.27366 12.0521Z" fill="#0077FA" />
</svg>
