<svg width="20" height="20" viewBox="0 0 20 20" fill="none" xmlns="http://www.w3.org/2000/svg">
	<path d="M15.0008 7.49999C15.0008 5.64701 13.9928 4.02945 12.4953 3.16571C12.4091 1.86316 11.3252 0.833328 10.0008 0.833328C8.67642 0.833328 7.59257 1.86316 7.50634 3.16571C6.00879 4.02945 5.00081 5.64701 5.00081 7.49999C5.00081 7.49999 5.00081 9.16666 4.58414 10.8333C4.34812 11.7774 3.17618 13.2563 2.20439 14.3612C1.71407 14.9187 2.10357 15.8333 2.84599 15.8333H17.1556C17.8981 15.8333 18.2875 14.9187 17.7972 14.3612C16.8254 13.2563 15.6535 11.7774 15.4175 10.8333C15.0008 9.16666 15.0008 7.49999 15.0008 7.49999Z" fill="#0077FA" />
	<path d="M12.5009 16.6667C12.5009 18.0474 11.3816 19.1667 10.0009 19.1667C8.62014 19.1667 7.50085 18.0474 7.50085 16.6667H12.5009Z" fill="#0077FA" />
</svg>
