<svg width="16" height="16" viewBox="0 0 16 16" fill="none" xmlns="http://www.w3.org/2000/svg">
	<path fill-rule="evenodd" clip-rule="evenodd" d="M7.00016 1.33398C3.87055 1.33398 1.3335 3.87104 1.3335 7.00065C1.3335 10.1303 3.87055 12.6673 7.00016 12.6673C8.20378 12.6673 9.31975 12.2921 10.2375 11.6522L12.9597 14.3744C13.3502 14.7649 13.9834 14.7649 14.3739 14.3744C14.7645 13.9839 14.7645 13.3507 14.3739 12.9602L11.6517 10.238C12.2916 9.32024 12.6668 8.20427 12.6668 7.00065C12.6668 3.87104 10.1298 1.33398 7.00016 1.33398ZM3.3335 7.00065C3.3335 4.97561 4.97512 3.33398 7.00016 3.33398C9.02521 3.33398 10.6668 4.97561 10.6668 7.00065C10.6668 9.0257 9.02521 10.6673 7.00016 10.6673C4.97512 10.6673 3.3335 9.0257 3.3335 7.00065Z" fill="#999DA8" />
</svg>
