<svg width="36" height="30" viewBox="0 0 36 30" fill="none" xmlns="http://www.w3.org/2000/svg">
	<path fill-rule="evenodd" clip-rule="evenodd" d="M23.9278 1.62771C23.9278 1.62771 23.0931 0.375614 22.2583 0.375614C21.502 0.375614 20.7881 0.435941 19.4991 1.62771C17.8297 3.17132 17.2492 5.24998 17.25 8.72288C17.2505 11.0279 17.7079 13.5049 19.7542 14.5659C19.9644 14.675 20.1533 14.7444 20.3218 14.785C21.4933 17.2462 23.3669 18.8421 25.4476 18.8421C27.7488 18.8421 29.7966 16.8901 30.9216 13.9744C30.9514 13.962 30.9811 13.9486 31.0108 13.9342C31.9524 14.1526 33.2755 14.2229 34.1919 14.244C34.5885 14.2531 34.7973 13.7684 34.5443 13.4628C34.066 12.8853 33.4593 12.0596 33.1098 11.227C33.0274 11.0308 32.9376 10.4466 32.8154 9.65127L32.8154 9.65124C32.4963 7.57523 31.9562 4.0605 30.7491 2.24998C29.6642 0.622591 26.2491 3.27826e-07 25.0091 0.375614C24.0873 0.654818 23.9278 1.62771 23.9278 1.62771ZM3.31402 3.62666C3.62921 2.91935 4.50919 2.77976 5.1582 3.20214L5.99997 3.74998L6.01558 1.49753C6.0177 1.19151 6.20444 0.913641 6.49753 0.825604C7.26916 0.593823 8.1573 0.485162 9.1657 0.485162C13.5925 0.485162 15.7017 2.57919 15.8104 7.99024C16.9313 8.42186 17.0129 9.80898 16.6016 11.3625C16.2854 12.5572 15.5928 13.4724 14.8649 13.7742C13.6936 16.8098 11.5615 18.842 9.1657 18.842C6.77021 18.842 4.63842 16.8103 3.46703 13.7754C2.73797 13.4749 2.04388 12.5588 1.72721 11.3625C1.31568 9.80775 1.39772 8.4197 2.52099 7.98922C2.55746 6.17902 2.81785 4.7401 3.31402 3.62666ZM12 30C12.8284 30 13.487 29.326 13.5517 28.5001C13.7053 26.5408 14.2268 25.2772 15.456 23.9877C16.2028 23.2043 16.0985 21.9039 15.0662 21.5792C13.8741 21.2043 12.5893 21 11.25 21C6.66504 21 2.71811 23.394 0.947802 26.8335C0.134025 28.4145 3.04604 30 4.82425 30H12ZM32.6983 30C34.4684 30 35.8825 28.4318 35.1165 26.836C33.4648 23.3951 29.7803 21 25.5 21C21.2196 21 17.5351 23.3951 15.8834 26.836C15.1174 28.4318 16.5316 30 18.3016 30H32.6983Z" fill="#0077FA" />
</svg>
