<svg width="21" height="22" viewBox="0 0 21 22" fill="none" xmlns="http://www.w3.org/2000/svg">
	<path fill-rule="evenodd" clip-rule="evenodd" d="M21 10.5C21 4.70101 16.299 0 10.5 0C4.70101 0 0 4.70101 0 10.5C0 12.4179 0.514216 14.2157 1.4123 15.7631L0.0868859 19.7393C-0.164875 20.4946 0.523975 21.2269 1.29323 21.0218L5.70712 19.8448C7.14399 20.5832 8.77332 21 10.5 21C16.299 21 21 16.299 21 10.5ZM5.5 12C4.67157 12 4 11.3284 4 10.5C4 9.67157 4.67157 9 5.5 9C6.32843 9 7 9.67157 7 10.5C7 11.3284 6.32843 12 5.5 12ZM12 10.5C12 11.3284 11.3284 12 10.5 12C9.67157 12 9 11.3284 9 10.5C9 9.67157 9.67157 9 10.5 9C11.3284 9 12 9.67157 12 10.5ZM15.5 12C14.6716 12 14 11.3284 14 10.5C14 9.67157 14.6716 9 15.5 9C16.3284 9 17 9.67157 17 10.5C17 11.3284 16.3284 12 15.5 12Z" fill="#0077FA" />
</svg>
