<svg width="12" height="14" viewBox="0 0 12 14" fill="none" xmlns="http://www.w3.org/2000/svg">
	<path d="M3.16667 0.666662C3.16667 0.482567 3.31591 0.333328 3.5 0.333328H8.5C8.6841 0.333328 8.83333 0.482567 8.83333 0.666662V1.33333C8.83333 1.51742 8.6841 1.66666 8.5 1.66666H3.5C3.31591 1.66666 3.16667 1.51742 3.16667 1.33333V0.666662Z" fill="#999DA8" />
	<path fill-rule="evenodd" clip-rule="evenodd" d="M1.33333 4H0.333334C0.149239 4 0 3.85076 0 3.66666V2.99999C0 2.8159 0.149238 2.66666 0.333333 2.66666H11.6667C11.8508 2.66666 12 2.8159 12 2.99999V3.66666C12 3.85076 11.8508 4 11.6667 4H10.6667L10 12.6667C10 13.2189 9.55228 13.6667 9 13.6667H3C2.44772 13.6667 2 13.2189 2 12.6667L1.33333 4ZM3.83333 6C3.83333 5.8159 3.98257 5.66666 4.16667 5.66666H4.83333C5.01743 5.66666 5.16667 5.8159 5.16667 6V10.3333C5.16667 10.5174 5.01743 10.6667 4.83333 10.6667H4.16667C3.98257 10.6667 3.83333 10.5174 3.83333 10.3333V6ZM6.83333 6C6.83333 5.8159 6.98257 5.66666 7.16667 5.66666H7.83333C8.01743 5.66666 8.16667 5.8159 8.16667 6V10.3333C8.16667 10.5174 8.01743 10.6667 7.83333 10.6667H7.16667C6.98257 10.6667 6.83333 10.5174 6.83333 10.3333V6Z" fill="#999DA8" />
</svg>
