<svg width="22" height="22" viewBox="0 0 22 22" fill="none" xmlns="http://www.w3.org/2000/svg">
	<path fill-rule="evenodd" clip-rule="evenodd" d="M9.6518 13.3184C8.93273 13.5971 8.15093 13.75 7.33342 13.75C3.78959 13.75 0.916748 10.8772 0.916748 7.33332C0.916748 6.49207 1.07864 5.68863 1.37296 4.95246C1.48804 4.66461 1.85704 4.60695 2.07624 4.82615L4.8519 7.60181C5.20988 7.95979 5.79028 7.95979 6.14826 7.60181L7.6019 6.14817C7.95988 5.79019 7.95988 5.20979 7.6019 4.85181L4.82625 2.07615C4.60704 1.85695 4.66471 1.48795 4.95255 1.37287C5.68873 1.07855 6.49216 0.916656 7.33342 0.916656C10.8772 0.916656 13.7501 3.7895 13.7501 7.33332C13.7501 8.15084 13.5972 8.93264 13.3185 9.65171L20.2454 16.5786C20.9613 17.2946 20.9613 18.4554 20.2454 19.1714L19.1714 20.2453C18.4555 20.9613 17.2947 20.9613 16.5787 20.2453L9.6518 13.3184Z" fill="#0077FA" />
</svg>
