<svg width="38" height="38" viewBox="0 0 38 38" fill="none" xmlns="http://www.w3.org/2000/svg">
<path fill-rule="evenodd" clip-rule="evenodd" d="M19.0001 37.3334C29.1253 37.3334 37.3334 29.1253 37.3334 19.0001C37.3334 8.87486 29.1253 0.666748 19.0001 0.666748C8.87486 0.666748 0.666748 8.87486 0.666748 19.0001C0.666748 29.1253 8.87486 37.3334 19.0001 37.3334ZM24.5782 18.5128C23.4321 21.4472 21.3458 23.4118 19.0014 23.4118C16.6573 23.4118 14.5712 21.4478 13.425 18.514C12.7115 18.2235 12.0323 17.338 11.7224 16.1815C11.3197 14.6786 11.4 13.3368 12.4992 12.9206C12.6059 7.69071 14.6699 5.66675 19.0014 5.66675C23.3332 5.66675 25.3971 7.69098 25.5035 12.9217C26.6002 13.339 26.6801 14.6798 26.2777 16.1815C25.9683 17.3364 25.2906 18.221 24.5782 18.5128ZM29.1564 27.9823C30.0091 28.4641 30.084 29.6134 29.3328 30.2419C26.7114 32.4351 23.2364 34.0001 19.0001 34.0001C14.7638 34.0001 11.2888 32.4351 8.66734 30.2419C7.91611 29.6134 7.99101 28.4641 8.84377 27.9823C11.7054 26.3654 15.542 25.6667 19.0001 25.6667C22.4581 25.6667 26.2948 26.3654 29.1564 27.9823Z" fill="white"/>
</svg>
