<svg width="14" height="16" viewBox="0 0 14 16" fill="none" xmlns="http://www.w3.org/2000/svg">
<path d="M11 5.99984C11 4.51745 10.1936 3.2234 8.99554 2.53241C8.92656 1.49037 8.05947 0.666504 6.99997 0.666504C5.94046 0.666504 5.07337 1.49037 5.00439 2.53241C3.80635 3.2234 2.99997 4.51745 2.99997 5.99984C2.99997 5.99984 2.99997 7.33317 2.66663 8.6665C2.47781 9.42179 1.54026 10.6049 0.762832 11.4888C0.370574 11.9348 0.682171 12.6665 1.27611 12.6665H12.7238C13.3178 12.6665 13.6294 11.9348 13.2371 11.4888C12.4597 10.6049 11.5221 9.42179 11.3333 8.6665C11 7.33317 11 5.99984 11 5.99984Z" fill="white"/>
<path d="M9 13.3332C9 14.4377 8.10457 15.3332 7 15.3332C5.89543 15.3332 5 14.4377 5 13.3332H9Z" fill="white"/>
</svg>
