<svg width="20" height="20" viewBox="0 0 20 20" fill="none" xmlns="http://www.w3.org/2000/svg">
	<path fill-rule="evenodd" clip-rule="evenodd" d="M5.83268 1.66602C4.22185 1.66602 2.91602 2.97185 2.91602 4.58268V15.416H2.92391C2.91868 15.4848 2.91602 15.5543 2.91602 15.6243C2.91602 17.1201 4.12858 18.3327 5.62435 18.3327H16.2494C16.7096 18.3327 17.0827 17.9596 17.0827 17.4993V2.49935C17.0827 2.03911 16.7096 1.66602 16.2494 1.66602H5.83268ZM5.62435 12.916C5.25522 12.916 4.90335 12.9899 4.58268 13.1236V4.58268C4.58268 3.89233 5.14233 3.33268 5.83268 3.33268H15.416V12.916H5.62435ZM5.62435 14.5827H15.416V16.666H5.62435C5.04905 16.666 4.58268 16.1996 4.58268 15.6243C4.58268 15.0491 5.04905 14.5827 5.62435 14.5827ZM10.7194 5.41052C10.3979 4.85863 9.60064 4.85863 9.27919 5.41052L8.65493 6.48232L7.44268 6.74482C6.81847 6.87999 6.57209 7.63827 6.99764 8.11452L7.82407 9.03944L7.69912 10.2735C7.63479 10.9089 8.27981 11.3775 8.86426 11.12L9.99929 10.6198L11.1343 11.12C11.7188 11.3775 12.3638 10.9089 12.2994 10.2735L12.1745 9.03944L13.0009 8.11452C13.4265 7.63827 13.1801 6.88 12.5559 6.74482L11.3436 6.48232L10.7194 5.41052ZM9.64265 7.2701L9.99929 6.65781L10.3559 7.2701C10.4737 7.47227 10.671 7.61563 10.8996 7.66514L11.5922 7.81511L11.1201 8.34349C10.9642 8.51795 10.8888 8.74991 10.9124 8.98268L10.9837 9.68766L10.3353 9.40192C10.1212 9.30758 9.87734 9.30758 9.66324 9.40192L9.01483 9.68766L9.08621 8.98268C9.10977 8.74991 9.03441 8.51795 8.87852 8.34349L8.4064 7.81511L9.09893 7.66514C9.32759 7.61563 9.5249 7.47227 9.64265 7.2701Z" fill="#0077FA" />
</svg>
