<svg width="14" height="12" viewBox="0 0 14 12" fill="none" xmlns="http://www.w3.org/2000/svg">
	<path d="M0.333984 11C0.333984 10.4477 0.7817 10 1.33398 10H12.6673C13.2196 10 13.6673 10.4477 13.6673 11C13.6673 11.5523 13.2196 12 12.6673 12H1.33398C0.7817 12 0.333984 11.5523 0.333984 11Z" fill="#3E4558" />
	<path d="M0.333984 6C0.333984 5.44772 0.7817 5 1.33398 5H12.6673C13.2196 5 13.6673 5.44772 13.6673 6C13.6673 6.55228 13.2196 7 12.6673 7H1.33398C0.7817 7 0.333984 6.55228 0.333984 6Z" fill="#3E4558" />
	<path d="M0.333985 1C0.333985 0.447715 0.7817 0 1.33398 0H12.6673C13.2196 0 13.6673 0.447715 13.6673 1C13.6673 1.55228 13.2196 2 12.6673 2H1.33398C0.7817 2 0.333985 1.55228 0.333985 1Z" fill="#3E4558" />
</svg>
