<svg width="90" height="54" viewBox="0 0 90 54" fill="none" xmlns="http://www.w3.org/2000/svg">
<g clip-path="url(#clip0_604_12751)">
<rect x="47.25" y="20.25" width="40.5" height="31.5" rx="3" fill="#CDD0D8"/>
<path fill-rule="evenodd" clip-rule="evenodd" d="M74.7832 0.747655L37.837 10.4704C36.2108 10.8983 35.2539 12.579 35.7159 14.1957L42.7492 38.8125V19.75C42.7492 17.5409 44.5401 15.75 46.7492 15.75H82.1242L78.4313 2.82472C77.9829 1.25519 76.3618 0.332237 74.7832 0.747655Z" fill="#CDD0D8"/>
</g>
<path d="M34.0873 34.965L21.9788 22.217C21.0496 21.2388 19.4082 21.8997 19.4082 23.2521V29.2543C8.9666 29.2543 3 36 3 44.9942C3 45.7437 3.36195 48.265 3.8337 48.4683C4.03913 48.5569 4.26539 48.447 4.49165 47.9923C7.82708 41.2884 11.2041 41.2466 19.4082 41.2466L19.4082 48.7479C19.4082 50.1003 21.0496 50.7612 21.9788 49.783L34.0873 37.035C34.6376 36.4558 34.6376 35.5442 34.0873 34.965Z" fill="#CDD0D8"/>
<defs>
<clipPath id="clip0_604_12751">
<rect width="54" height="54" fill="white" transform="translate(36)"/>
</clipPath>
</defs>
</svg>
