<svg width="8" height="12" viewBox="0 0 8 12" fill="none" xmlns="http://www.w3.org/2000/svg">
	<path d="M1.99935 2.66667C2.73573 2.66667 3.33268 2.06971 3.33268 1.33333C3.33268 0.596954 2.73573 0 1.99935 0C1.26297 0 0.666016 0.596954 0.666016 1.33333C0.666016 2.06971 1.26297 2.66667 1.99935 2.66667Z" fill="black" fill-opacity="0.1" />
	<path d="M1.99935 7.33333C2.73573 7.33333 3.33268 6.73638 3.33268 6C3.33268 5.26362 2.73573 4.66667 1.99935 4.66667C1.26297 4.66667 0.666016 5.26362 0.666016 6C0.666016 6.73638 1.26297 7.33333 1.99935 7.33333Z" fill="black" fill-opacity="0.1" />
	<path d="M3.33268 10.6667C3.33268 11.403 2.73573 12 1.99935 12C1.26297 12 0.666016 11.403 0.666016 10.6667C0.666016 9.93029 1.26297 9.33333 1.99935 9.33333C2.73573 9.33333 3.33268 9.93029 3.33268 10.6667Z" fill="black" fill-opacity="0.1" />
	<path d="M5.99935 2.66667C6.73573 2.66667 7.33268 2.06971 7.33268 1.33333C7.33268 0.596954 6.73573 0 5.99935 0C5.26297 0 4.66602 0.596954 4.66602 1.33333C4.66602 2.06971 5.26297 2.66667 5.99935 2.66667Z" fill="black" fill-opacity="0.1" />
	<path d="M7.33268 6C7.33268 6.73638 6.73573 7.33333 5.99935 7.33333C5.26297 7.33333 4.66602 6.73638 4.66602 6C4.66602 5.26362 5.26297 4.66667 5.99935 4.66667C6.73573 4.66667 7.33268 5.26362 7.33268 6Z" fill="black" fill-opacity="0.1" />
	<path d="M5.99935 12C6.73573 12 7.33268 11.403 7.33268 10.6667C7.33268 9.93029 6.73573 9.33333 5.99935 9.33333C5.26297 9.33333 4.66602 9.93029 4.66602 10.6667C4.66602 11.403 5.26297 12 5.99935 12Z" fill="black" fill-opacity="0.1" />
</svg>
