<svg width="16" height="16" viewBox="0 0 16 16" fill="none" xmlns="http://www.w3.org/2000/svg">
	<path d="M1.33398 7.63112C1.33398 7.44213 1.4142 7.26202 1.55467 7.13559L7.55468 1.73559C7.80821 1.50741 8.19309 1.50741 8.44663 1.73559L14.4466 7.13559C14.5871 7.26202 14.6673 7.44213 14.6673 7.63112V13.3342C14.6673 14.0706 14.0704 14.6675 13.334 14.6675H10.6673C10.2991 14.6675 10.0007 14.3691 10.0007 14.0009V11.3342C10.0007 10.2296 9.10522 9.33421 8.00065 9.33421C6.89608 9.33421 6.00065 10.2296 6.00065 11.3342V14.0009C6.00065 14.3691 5.70217 14.6675 5.33398 14.6675H2.66732C1.93094 14.6675 1.33398 14.0706 1.33398 13.3342V7.63112Z" fill="black" fill-opacity="0.8" />
</svg>
