<svg width="16" height="16" viewBox="0 0 16 16" fill="none" xmlns="http://www.w3.org/2000/svg">
	<path d="M11.7711 13.1853C12.1616 13.5758 12.7948 13.5758 13.1853 13.1853C13.5758 12.7948 13.5758 12.1616 13.1853 11.7711L9.41404 7.99983L13.1853 4.22859C13.5758 3.83807 13.5758 3.2049 13.1853 2.81438C12.7948 2.42385 12.1616 2.42385 11.7711 2.81438L7.99983 6.58561L4.22859 2.81438C3.83807 2.42385 3.2049 2.42385 2.81438 2.81438C2.42385 3.2049 2.42385 3.83807 2.81438 4.22859L6.58561 7.99983L2.81438 11.7711C2.42385 12.1616 2.42385 12.7948 2.81438 13.1853C3.2049 13.5758 3.83807 13.5758 4.22859 13.1853L7.99983 9.41404L11.7711 13.1853Z" fill="#6B7475" />
</svg>
